HIERARCHY
ROOT joint_Root
{
	OFFSET 0.0 0.0 0.0
	CHANNELS 6 Xposition Yposition Zposition Zrotation Xrotation Yrotation 
	JOINT Hips
	{
		OFFSET -0.726466 93.3139 -2.00062
		CHANNELS 6 Xposition Yposition Zposition Zrotation Xrotation Yrotation 
		JOINT Spine
		{
			OFFSET 15.7357 0.0 0.0
			CHANNELS 6 Xposition Yposition Zposition Zrotation Xrotation Yrotation 
			JOINT Chest
			{
				OFFSET 8.98455 -0.406207 0.0
				CHANNELS 6 Xposition Yposition Zposition Zrotation Xrotation Yrotation 
				JOINT Neck
				{
					OFFSET 16.3773 0.0 0.0
					CHANNELS 6 Xposition Yposition Zposition Zrotation Xrotation Yrotation 
					JOINT Head
					{
						OFFSET 6.45672 0.0 0.0
						CHANNELS 6 Xposition Yposition Zposition Zrotation Xrotation Yrotation 
						End Site
						{
							OFFSET 0.0 0.0 0.0
						}
					}
				}
				JOINT Shoulder_L
				{
					OFFSET 12.9942 -0.242716 4.98039
					CHANNELS 6 Xposition Yposition Zposition Zrotation Xrotation Yrotation 
					JOINT UpperArm_L
					{
						OFFSET 5.34809 0.0 0.0
						CHANNELS 6 Xposition Yposition Zposition Zrotation Xrotation Yrotation 
						JOINT LowerArm_L
						{
							OFFSET 24.3286 1.87007e-05 0.0
							CHANNELS 6 Xposition Yposition Zposition Zrotation Xrotation Yrotation 
							JOINT Hand_L
							{
								OFFSET 22.2916 0.0 0.0
								CHANNELS 6 Xposition Yposition Zposition Zrotation Xrotation Yrotation 
								End Site
								{
									OFFSET 0.0 0.0 0.0
								}
							}
						}
					}
				}
				JOINT Shoulder_R
				{
					OFFSET 12.9945 -0.242716 -4.98039
					CHANNELS 6 Xposition Yposition Zposition Zrotation Xrotation Yrotation 
					JOINT UpperArm_R
					{
						OFFSET -5.34813 0.0 0.0
						CHANNELS 6 Xposition Yposition Zposition Zrotation Xrotation Yrotation 
						JOINT LowerArm_R
						{
							OFFSET -24.3289 0.000322201 0.0
							CHANNELS 6 Xposition Yposition Zposition Zrotation Xrotation Yrotation 
							JOINT Hand_R
							{
								OFFSET -22.2915 -0.000108084 0.0
								CHANNELS 6 Xposition Yposition Zposition Zrotation Xrotation Yrotation 
								End Site
								{
									OFFSET 0.0 0.0 0.0
								}
							}
						}
					}
				}
			}
		}
		JOINT UpperLeg_L
		{
			OFFSET -2.19248 -6.46944 0.0
			CHANNELS 6 Xposition Yposition Zposition Zrotation Xrotation Yrotation 
			JOINT LowerLeg_L
			{
				OFFSET 39.0811 0.0 -1.23785e-05
				CHANNELS 6 Xposition Yposition Zposition Zrotation Xrotation Yrotation 
				JOINT Foot_L
				{
					OFFSET 40.9854 0.0 -1.26872e-05
					CHANNELS 6 Xposition Yposition Zposition Zrotation Xrotation Yrotation 
					JOINT Toes_L
					{
						OFFSET 11.7543 0.0 0.0
						CHANNELS 6 Xposition Yposition Zposition Zrotation Xrotation Yrotation 
						End Site
						{
							OFFSET 0.0 0.0 0.0
						}
					}
				}
			}
		}
		JOINT UpperLeg_R
		{
			OFFSET -2.19251 6.46944 0.0
			CHANNELS 6 Xposition Yposition Zposition Zrotation Xrotation Yrotation 
			JOINT LowerLeg_R
			{
				OFFSET -39.0811 -0.00228153 -0.0401928
				CHANNELS 6 Xposition Yposition Zposition Zrotation Xrotation Yrotation 
				JOINT Foot_R
				{
					OFFSET -40.9854 0.0 0.0
					CHANNELS 6 Xposition Yposition Zposition Zrotation Xrotation Yrotation 
					JOINT Toes_R
					{
						OFFSET -11.7543 0.0 0.0
						CHANNELS 6 Xposition Yposition Zposition Zrotation Xrotation Yrotation 
						End Site
						{
							OFFSET 0.0 0.0 0.0
						}
					}
				}
			}
		}
	}
}
MOTION
Frames:	6
Frame Time:	0.0333333
0.000000 0.000000 0.000000 0.000000 0.000000 -0.000000 -0.901077 92.049700 -1.698340 87.636600 -1.318810 3.249300 15.735700 0.000005 -0.000001 88.409300 85.208600 -87.990800 8.984550 -0.406207 -0.000000 1.814210 -0.287574 0.840951 16.377300 -0.000001 -0.000001 1.670510 -2.997480 1.267830 6.456720 -0.000001 -0.000000 2.884060 -2.064210 -2.467500 12.994200 -0.242716 4.980390 -89.792400 -0.654379 -72.400300 5.348090 -0.000007 -0.000001 -67.479900 34.513900 -14.574800 24.328600 0.000019 0.000005 2.514520 5.410220 -24.973800 22.291600 -0.000001 0.000005 4.417220 5.542880 -8.373320 12.994500 -0.242716 -4.980390 88.107800 5.480640 -70.918700 -5.348130 -0.000001 -0.000004 -65.950200 36.534200 -15.489400 -24.328900 0.000322 -0.000009 2.242580 5.827510 -21.100200 -22.291500 -0.000108 -0.000004 9.830200 5.573590 -9.873830 -2.192480 -6.469440 -0.000000 -169.234000 -14.436800 -2.664630 39.081100 -0.000007 -0.000012 -0.190846 0.475494 21.869100 40.985400 -0.000006 -0.000013 -5.819750 2.841030 -64.293800 11.754300 -0.000000 0.000003 -0.000059 -0.000653 -16.602900 -2.192510 6.469440 -0.000001 174.508000 20.397800 179.393000 -39.081100 -0.002282 -0.040193 -0.060643 0.184551 19.116600 -40.985400 0.000008 0.000006 -3.771160 3.398420 -63.148800 -11.754300 -0.000006 -0.000006 -0.005253 -0.063895 -19.173000
0.000000 0.000000 0.000000 0.000000 0.000000 -0.000000 -0.899947 92.065100 -1.673000 87.639800 -1.313450 3.177230 15.735700 0.000005 -0.000001 88.452800 85.235000 -88.028300 8.984550 -0.406207 -0.000000 1.761780 -0.279399 0.852553 16.377300 -0.000001 -0.000001 1.513810 -2.985240 1.220220 6.456720 -0.000001 -0.000000 2.946280 -2.115150 -2.398820 12.994200 -0.242716 4.980390 -89.755700 -0.756891 -72.107600 5.348090 -0.000007 -0.000001 -67.433900 31.429600 -14.298300 24.328600 0.000019 0.000005 2.357900 5.056080 -25.042300 22.291600 -0.000001 0.000005 5.295020 5.548750 -8.648180 12.994500 -0.242716 -4.980390 88.184700 5.181500 -70.662400 -5.348130 -0.000001 -0.000004 -66.512400 33.716200 -14.892300 -24.328900 0.000322 -0.000009 2.223260 5.629710 -21.600900 -22.291500 -0.000108 -0.000004 10.042900 5.574910 -9.944980 -2.192480 -6.469440 -0.000000 -169.247000 -14.541100 -2.662850 39.081100 -0.000007 -0.000012 -0.188170 0.471674 21.749300 40.985400 -0.000006 -0.000013 -5.805990 2.910010 -64.237000 11.754300 -0.000000 0.000003 -0.000047 -0.000536 -16.598400 -2.192510 6.469440 -0.000001 174.543000 20.444800 179.361000 -39.081100 -0.002282 -0.040193 -0.056614 0.173583 19.049600 -40.985400 0.000008 0.000006 -3.579050 3.409630 -63.141400 -11.754300 -0.000006 -0.000006 -0.005057 -0.062015 -19.096400
0.000000 0.000000 0.000000 0.000000 0.000000 -0.000000 -0.901602 92.070700 -1.662950 87.633600 -1.294460 3.031560 15.735700 0.000005 -0.000001 88.299100 85.303800 -87.860200 8.984550 -0.406207 -0.000000 1.623550 -0.302154 0.881337 16.377300 -0.000001 -0.000001 1.459650 -2.950070 1.165400 6.456720 -0.000001 -0.000000 2.911970 -2.097710 -2.403140 12.994200 -0.242716 4.980390 -89.720700 -0.850408 -71.819100 5.348090 -0.000007 -0.000001 -66.324200 28.138300 -14.591300 24.328600 0.000019 0.000005 2.015260 4.408060 -24.596800 22.291600 -0.000001 0.000005 5.906030 5.550050 -8.709100 12.994500 -0.242716 -4.980390 88.263200 4.864090 -70.323000 -5.348130 -0.000001 -0.000004 -66.490800 30.068200 -14.668300 -24.328900 0.000322 -0.000009 2.109560 5.269210 -21.865800 -22.291500 -0.000108 -0.000004 11.073900 5.574070 -9.899380 -2.192480 -6.469440 -0.000000 -169.288000 -14.486600 -2.792850 39.081100 -0.000007 -0.000012 -0.187183 0.470127 21.710500 40.985400 -0.000006 -0.000013 -5.823430 2.832930 -64.227500 11.754300 -0.000000 0.000003 -0.000048 -0.000542 -16.598600 -2.192510 6.469440 -0.000001 174.607000 20.468400 179.237000 -39.081100 -0.002282 -0.040193 -0.054607 0.168245 18.999600 -40.985400 0.000008 0.000006 -3.578260 3.406780 -63.122200 -11.754300 -0.000006 -0.000006 -0.005244 -0.063810 -19.169500
0.000000 0.000000 0.000000 0.000000 0.000000 -0.000000 -0.917517 92.090000 -1.655920 87.633400 -1.278870 2.954620 15.735700 0.000005 -0.000001 88.171600 85.374300 -87.727600 8.984550 -0.406207 -0.000000 1.481980 -0.319370 0.891241 16.377300 -0.000001 -0.000001 1.403890 -2.892680 1.126160 6.456720 -0.000001 -0.000000 2.950530 -1.956640 -2.382670 12.994200 -0.242716 4.980390 -89.652900 -1.048200 -71.675300 5.348090 -0.000007 -0.000001 -64.315600 24.558000 -15.475100 24.328600 0.000019 0.000005 1.755030 4.096610 -23.212500 22.291600 -0.000001 0.000005 6.198990 5.550510 -8.729560 12.994500 -0.242716 -4.980390 88.318700 4.622230 -69.986000 -5.348130 -0.000001 -0.000004 -65.351900 26.120100 -15.144400 -24.328900 0.000322 -0.000009 1.848050 4.676930 -21.600200 -22.291500 -0.000108 -0.000004 11.665400 5.565820 -9.476050 -2.192480 -6.469440 -0.000000 -169.291000 -14.545700 -2.794110 39.081100 -0.000007 -0.000012 -0.185265 0.469023 21.554400 40.985400 -0.000006 -0.000013 -5.820630 2.907180 -64.141100 11.754300 -0.000000 0.000003 -0.000046 -0.000529 -16.598100 -2.192510 6.469440 -0.000001 174.664000 20.497600 179.206000 -39.081100 -0.002282 -0.040193 -0.050131 0.156087 18.904700 -40.985400 0.000008 0.000006 -3.401050 3.384780 -63.098600 -11.754300 -0.000006 -0.000006 -0.005100 -0.062430 -19.113300
0.000000 0.000000 0.000000 0.000000 0.000000 -0.000000 -0.915526 92.081900 -1.623940 87.615700 -1.282010 2.888640 15.735700 0.000005 -0.000001 87.504400 85.446400 -87.040500 8.984550 -0.406207 -0.000000 1.334420 -0.422389 0.931974 16.377300 -0.000001 -0.000001 1.314040 -2.761620 1.023100 6.456720 -0.000001 -0.000000 2.982930 -1.726420 -2.361180 12.994200 -0.242716 4.980390 -89.496100 -1.512760 -71.573500 5.348090 -0.000007 -0.000001 -61.700500 20.736900 -16.782900 24.328600 0.000019 0.000005 1.627500 4.248130 -20.985200 22.291600 -0.000001 0.000005 6.491410 5.551740 -8.788260 12.994500 -0.242716 -4.980390 88.440100 4.239200 -69.776400 -5.348130 -0.000001 -0.000004 -63.248600 21.802400 -16.546400 -24.328900 0.000322 -0.000009 1.585490 4.294840 -20.297500 -22.291500 -0.000108 -0.000004 11.363800 5.556260 -9.003400 -2.192480 -6.469440 -0.000000 -169.281000 -14.617600 -2.872080 39.081100 -0.000007 -0.000012 -0.185928 0.469103 21.621000 40.985400 -0.000006 -0.000013 -5.813310 2.945830 -64.186900 11.754300 -0.000000 0.000003 -0.000052 -0.000583 -16.600200 -2.192510 6.469440 -0.000001 174.674000 20.556700 179.175000 -39.081100 -0.002282 -0.040193 -0.053285 0.165453 18.888000 -40.985400 0.000008 0.000006 -3.517390 3.446480 -63.097000 -11.754300 -0.000006 -0.000006 -0.005113 -0.062558 -19.118500
0.000000 0.000000 0.000000 0.000000 0.000000 -0.000000 -0.911552 92.091000 -1.613710 87.632700 -1.330600 2.803240 15.735700 0.000005 -0.000001 86.599600 85.541800 -86.135100 8.984550 -0.406207 -0.000000 1.137080 -0.555493 0.933670 16.377300 -0.000001 -0.000001 1.076430 -2.593320 0.826078 6.456720 -0.000001 -0.000000 3.042670 -1.417250 -2.195530 12.994200 -0.242716 4.980390 -89.271600 -2.184550 -71.555400 5.348090 -0.000007 -0.000001 -59.057000 15.650100 -17.849300 24.328600 0.000019 0.000005 1.645650 4.840640 -18.801300 22.291600 -0.000001 0.000005 6.897730 5.549570 -8.687010 12.994500 -0.242716 -4.980390 88.556900 3.903110 -69.691300 -5.348130 -0.000001 -0.000004 -60.637300 16.360600 -18.361400 -24.328900 0.000322 -0.000009 1.385700 4.166050 -18.428500 -22.291500 -0.000108 -0.000004 10.797800 5.541630 -8.311160 -2.192480 -6.469440 -0.000000 -169.318000 -14.607500 -2.882360 39.081100 -0.000007 -0.000012 -0.186004 0.471778 21.517600 40.985400 -0.000006 -0.000013 -5.832430 2.884980 -64.159900 11.754300 -0.000000 0.000003 -0.000043 -0.000496 -16.596800 -2.192510 6.469440 -0.000001 174.691000 20.458300 179.120000 -39.081100 -0.002282 -0.040193 -0.051679 0.161418 18.816200 -40.985400 0.000008 0.000006 -3.510110 3.425560 -63.073000 -11.754300 -0.000006 -0.000006 -0.005222 -0.063599 -19.160900
